<mxfile host="Electron" agent="Mozilla/5.0 (Windows NT 10.0; Win64; x64) AppleWebKit/537.36 (KHTML, like Gecko) draw.io/24.7.8 Chrome/128.0.6613.36 Electron/32.0.1 Safari/537.36" version="24.7.8" pages="2">
  <diagram name="Page-1" id="OrN-ssXydDm0jcaFIezB">
    <mxGraphModel dx="1235" dy="731" grid="1" gridSize="10" guides="1" tooltips="1" connect="1" arrows="1" fold="1" page="1" pageScale="1" pageWidth="1169" pageHeight="827" math="0" shadow="0">
      <root>
        <mxCell id="0" />
        <mxCell id="1" parent="0" />
        <mxCell id="V200SR-YE6NzMzPRf2Fc-15" value="" style="edgeStyle=orthogonalEdgeStyle;rounded=0;orthogonalLoop=1;jettySize=auto;html=1;strokeWidth=2;" edge="1" parent="1" source="V200SR-YE6NzMzPRf2Fc-1" target="V200SR-YE6NzMzPRf2Fc-12">
          <mxGeometry relative="1" as="geometry" />
        </mxCell>
        <mxCell id="V200SR-YE6NzMzPRf2Fc-1" value="Original Dataset" style="rounded=1;whiteSpace=wrap;html=1;fontSize=16;strokeWidth=2;fillColor=#d5e8d4;strokeColor=#82b366;" vertex="1" parent="1">
          <mxGeometry x="110" y="327.5" width="193" height="95" as="geometry" />
        </mxCell>
        <mxCell id="V200SR-YE6NzMzPRf2Fc-16" value="&lt;span style=&quot;font-weight: normal; font-size: 15px;&quot;&gt;( 3454, 15 )&lt;/span&gt;" style="text;html=1;align=center;verticalAlign=middle;resizable=0;points=[];autosize=1;strokeColor=none;fillColor=none;fontSize=15;fontStyle=1" vertex="1" parent="1">
          <mxGeometry x="203" y="430" width="100" height="30" as="geometry" />
        </mxCell>
        <mxCell id="V200SR-YE6NzMzPRf2Fc-8" value="" style="rounded=0;whiteSpace=wrap;html=1;dashed=1;strokeWidth=1;dashPattern=8 8;" vertex="1" parent="1">
          <mxGeometry x="753" y="220" width="237" height="310" as="geometry" />
        </mxCell>
        <mxCell id="V200SR-YE6NzMzPRf2Fc-6" value="Flagship Devices" style="rounded=1;whiteSpace=wrap;html=1;fontSize=15;strokeWidth=2;fillColor=#fff2cc;strokeColor=#d6b656;" vertex="1" parent="1">
          <mxGeometry x="790" y="250" width="170" height="60" as="geometry" />
        </mxCell>
        <mxCell id="V200SR-YE6NzMzPRf2Fc-7" value="Mid-Range Devices" style="rounded=1;whiteSpace=wrap;html=1;fontSize=15;strokeWidth=2;fillColor=#dae8fc;strokeColor=#6c8ebf;" vertex="1" parent="1">
          <mxGeometry x="790" y="440" width="170" height="60" as="geometry" />
        </mxCell>
        <mxCell id="V200SR-YE6NzMzPRf2Fc-9" value="Clustering" style="text;html=1;align=center;verticalAlign=middle;resizable=0;points=[];autosize=1;strokeColor=none;fillColor=none;fontSize=16;fontStyle=1" vertex="1" parent="1">
          <mxGeometry x="825" y="170" width="100" height="30" as="geometry" />
        </mxCell>
        <mxCell id="V200SR-YE6NzMzPRf2Fc-18" value="&lt;span style=&quot;font-weight: normal; font-size: 15px;&quot;&gt;( 1996, 15 )&lt;/span&gt;" style="text;html=1;align=center;verticalAlign=middle;resizable=0;points=[];autosize=1;strokeColor=none;fillColor=none;fontSize=15;fontStyle=1" vertex="1" parent="1">
          <mxGeometry x="790" y="310" width="100" height="30" as="geometry" />
        </mxCell>
        <mxCell id="V200SR-YE6NzMzPRf2Fc-19" value="&lt;span style=&quot;font-weight: normal; font-size: 15px;&quot;&gt;( 1257, 15 )&lt;/span&gt;" style="text;html=1;align=center;verticalAlign=middle;resizable=0;points=[];autosize=1;strokeColor=none;fillColor=none;fontSize=15;fontStyle=1" vertex="1" parent="1">
          <mxGeometry x="790" y="410" width="100" height="30" as="geometry" />
        </mxCell>
        <mxCell id="V200SR-YE6NzMzPRf2Fc-23" style="edgeStyle=orthogonalEdgeStyle;rounded=0;orthogonalLoop=1;jettySize=auto;html=1;strokeWidth=3;fillColor=#fff2cc;strokeColor=#d6b656;" edge="1" parent="1" source="V200SR-YE6NzMzPRf2Fc-12" target="V200SR-YE6NzMzPRf2Fc-6">
          <mxGeometry relative="1" as="geometry" />
        </mxCell>
        <mxCell id="V200SR-YE6NzMzPRf2Fc-24" style="edgeStyle=orthogonalEdgeStyle;rounded=0;orthogonalLoop=1;jettySize=auto;html=1;fillColor=#dae8fc;strokeColor=#6c8ebf;strokeWidth=3;" edge="1" parent="1" source="V200SR-YE6NzMzPRf2Fc-12" target="V200SR-YE6NzMzPRf2Fc-7">
          <mxGeometry relative="1" as="geometry" />
        </mxCell>
        <mxCell id="V200SR-YE6NzMzPRf2Fc-12" value="" style="rounded=0;whiteSpace=wrap;html=1;dashed=1;strokeWidth=1;dashPattern=8 8;" vertex="1" parent="1">
          <mxGeometry x="353" y="250" width="300" height="250" as="geometry" />
        </mxCell>
        <mxCell id="V200SR-YE6NzMzPRf2Fc-2" value="Label Encoding based on &quot;OS&quot; Feature" style="rounded=1;whiteSpace=wrap;html=1;fontSize=15;strokeWidth=2;" vertex="1" parent="1">
          <mxGeometry x="394.93" y="400" width="216.13" height="70" as="geometry" />
        </mxCell>
        <mxCell id="V200SR-YE6NzMzPRf2Fc-14" value="" style="edgeStyle=orthogonalEdgeStyle;rounded=0;orthogonalLoop=1;jettySize=auto;html=1;strokeWidth=2;" edge="1" parent="1" source="V200SR-YE6NzMzPRf2Fc-13" target="V200SR-YE6NzMzPRf2Fc-2">
          <mxGeometry relative="1" as="geometry" />
        </mxCell>
        <mxCell id="V200SR-YE6NzMzPRf2Fc-13" value="Dropping rows with Null values" style="rounded=1;whiteSpace=wrap;html=1;fontSize=15;strokeWidth=2;" vertex="1" parent="1">
          <mxGeometry x="392.46" y="280" width="221.12" height="80" as="geometry" />
        </mxCell>
        <mxCell id="V200SR-YE6NzMzPRf2Fc-17" value="&lt;span style=&quot;font-weight: normal; font-size: 15px;&quot;&gt;( 3253, 15 )&lt;/span&gt;" style="text;html=1;align=center;verticalAlign=middle;resizable=0;points=[];autosize=1;strokeColor=none;fillColor=none;fontSize=15;fontStyle=1" vertex="1" parent="1">
          <mxGeometry x="553" y="500" width="100" height="30" as="geometry" />
        </mxCell>
        <mxCell id="V200SR-YE6NzMzPRf2Fc-20" value="Preprocessing" style="text;html=1;align=center;verticalAlign=middle;resizable=0;points=[];autosize=1;strokeColor=none;fillColor=none;fontSize=16;fontStyle=1" vertex="1" parent="1">
          <mxGeometry x="438.02" y="180" width="130" height="30" as="geometry" />
        </mxCell>
      </root>
    </mxGraphModel>
  </diagram>
  <diagram id="G1dO3NZGIpV2APw-IAsp" name="Page-2">
    <mxGraphModel dx="1615" dy="955" grid="1" gridSize="10" guides="1" tooltips="1" connect="1" arrows="1" fold="1" page="1" pageScale="1" pageWidth="1169" pageHeight="827" math="0" shadow="0">
      <root>
        <mxCell id="0" />
        <mxCell id="1" parent="0" />
        <mxCell id="Zxz7v_TV_L8BSBhZAzVD-15" value="" style="group" vertex="1" connectable="0" parent="1">
          <mxGeometry x="57" y="540" width="490" height="250" as="geometry" />
        </mxCell>
        <mxCell id="Zxz7v_TV_L8BSBhZAzVD-1" value="" style="rounded=0;whiteSpace=wrap;html=1;strokeWidth=4;dashed=1;" vertex="1" parent="Zxz7v_TV_L8BSBhZAzVD-15">
          <mxGeometry width="490" height="250" as="geometry" />
        </mxCell>
        <mxCell id="Zxz7v_TV_L8BSBhZAzVD-4" value="Flagship Client" style="text;html=1;align=center;verticalAlign=middle;resizable=0;points=[];autosize=1;strokeColor=none;fillColor=none;fontSize=22;fontStyle=1" vertex="1" parent="Zxz7v_TV_L8BSBhZAzVD-15">
          <mxGeometry x="160" y="20" width="170" height="40" as="geometry" />
        </mxCell>
        <mxCell id="Zxz7v_TV_L8BSBhZAzVD-9" value="" style="edgeStyle=orthogonalEdgeStyle;rounded=0;orthogonalLoop=1;jettySize=auto;html=1;" edge="1" parent="Zxz7v_TV_L8BSBhZAzVD-15" source="Zxz7v_TV_L8BSBhZAzVD-7" target="Zxz7v_TV_L8BSBhZAzVD-8">
          <mxGeometry relative="1" as="geometry" />
        </mxCell>
        <mxCell id="Zxz7v_TV_L8BSBhZAzVD-7" value="" style="sketch=0;outlineConnect=0;fontColor=#232F3E;gradientColor=none;fillColor=#DD344C;strokeColor=none;dashed=0;verticalLabelPosition=bottom;verticalAlign=top;align=center;html=1;fontSize=12;fontStyle=0;aspect=fixed;pointerEvents=1;shape=mxgraph.aws4.cloud_extension_ros;" vertex="1" parent="Zxz7v_TV_L8BSBhZAzVD-15">
          <mxGeometry x="35" y="110" width="78" height="78" as="geometry" />
        </mxCell>
        <mxCell id="Zxz7v_TV_L8BSBhZAzVD-11" value="" style="edgeStyle=orthogonalEdgeStyle;rounded=0;orthogonalLoop=1;jettySize=auto;html=1;" edge="1" parent="Zxz7v_TV_L8BSBhZAzVD-15" source="Zxz7v_TV_L8BSBhZAzVD-8" target="Zxz7v_TV_L8BSBhZAzVD-10">
          <mxGeometry relative="1" as="geometry" />
        </mxCell>
        <mxCell id="Zxz7v_TV_L8BSBhZAzVD-8" value="" style="sketch=0;points=[[0,0,0],[0.25,0,0],[0.5,0,0],[0.75,0,0],[1,0,0],[0,1,0],[0.25,1,0],[0.5,1,0],[0.75,1,0],[1,1,0],[0,0.25,0],[0,0.5,0],[0,0.75,0],[1,0.25,0],[1,0.5,0],[1,0.75,0]];outlineConnect=0;fillColor=#fff2cc;strokeColor=#d6b656;dashed=0;verticalLabelPosition=bottom;verticalAlign=top;align=center;html=1;fontSize=12;fontStyle=0;aspect=fixed;shape=mxgraph.aws4.resourceIcon;resIcon=mxgraph.aws4.machine_learning;" vertex="1" parent="Zxz7v_TV_L8BSBhZAzVD-15">
          <mxGeometry x="206" y="110" width="78" height="78" as="geometry" />
        </mxCell>
        <mxCell id="Zxz7v_TV_L8BSBhZAzVD-10" value="" style="sketch=0;outlineConnect=0;fillColor=#FFD966;strokeColor=#d6b656;dashed=0;verticalLabelPosition=bottom;verticalAlign=top;align=center;html=1;fontSize=12;fontStyle=0;aspect=fixed;shape=mxgraph.aws4.workspaces_family_amazon_workspaces_core;" vertex="1" parent="Zxz7v_TV_L8BSBhZAzVD-15">
          <mxGeometry x="375" y="110" width="77" height="78" as="geometry" />
        </mxCell>
        <mxCell id="Zxz7v_TV_L8BSBhZAzVD-12" value="Local Data" style="text;html=1;align=center;verticalAlign=middle;resizable=0;points=[];autosize=1;strokeColor=none;fillColor=none;fontStyle=1;fontSize=15;" vertex="1" parent="Zxz7v_TV_L8BSBhZAzVD-15">
          <mxGeometry x="24" y="193" width="100" height="30" as="geometry" />
        </mxCell>
        <mxCell id="Zxz7v_TV_L8BSBhZAzVD-13" value="Local Model&lt;div style=&quot;font-size: 15px;&quot;&gt;Training&lt;/div&gt;" style="text;html=1;align=center;verticalAlign=middle;resizable=0;points=[];autosize=1;strokeColor=none;fillColor=none;fontStyle=1;fontSize=15;" vertex="1" parent="Zxz7v_TV_L8BSBhZAzVD-15">
          <mxGeometry x="195" y="188" width="100" height="50" as="geometry" />
        </mxCell>
        <mxCell id="Zxz7v_TV_L8BSBhZAzVD-14" value="Local Weights" style="text;html=1;align=center;verticalAlign=middle;resizable=0;points=[];autosize=1;strokeColor=none;fillColor=none;fontStyle=1;fontSize=15;" vertex="1" parent="Zxz7v_TV_L8BSBhZAzVD-15">
          <mxGeometry x="353.5" y="193" width="120" height="30" as="geometry" />
        </mxCell>
        <mxCell id="Zxz7v_TV_L8BSBhZAzVD-16" value="" style="group" vertex="1" connectable="0" parent="1">
          <mxGeometry x="622" y="540" width="490" height="250" as="geometry" />
        </mxCell>
        <mxCell id="Zxz7v_TV_L8BSBhZAzVD-17" value="" style="rounded=0;whiteSpace=wrap;html=1;strokeWidth=4;dashed=1;" vertex="1" parent="Zxz7v_TV_L8BSBhZAzVD-16">
          <mxGeometry width="490" height="250" as="geometry" />
        </mxCell>
        <mxCell id="Zxz7v_TV_L8BSBhZAzVD-18" value="Mid-Range Client" style="text;html=1;align=center;verticalAlign=middle;resizable=0;points=[];autosize=1;strokeColor=none;fillColor=none;fontSize=22;fontStyle=1" vertex="1" parent="Zxz7v_TV_L8BSBhZAzVD-16">
          <mxGeometry x="150" y="20" width="190" height="40" as="geometry" />
        </mxCell>
        <mxCell id="Zxz7v_TV_L8BSBhZAzVD-19" value="" style="edgeStyle=orthogonalEdgeStyle;rounded=0;orthogonalLoop=1;jettySize=auto;html=1;" edge="1" parent="Zxz7v_TV_L8BSBhZAzVD-16" source="Zxz7v_TV_L8BSBhZAzVD-20" target="Zxz7v_TV_L8BSBhZAzVD-22">
          <mxGeometry relative="1" as="geometry" />
        </mxCell>
        <mxCell id="Zxz7v_TV_L8BSBhZAzVD-20" value="" style="sketch=0;outlineConnect=0;fontColor=#232F3E;gradientColor=none;fillColor=#DD344C;strokeColor=none;dashed=0;verticalLabelPosition=bottom;verticalAlign=top;align=center;html=1;fontSize=12;fontStyle=0;aspect=fixed;pointerEvents=1;shape=mxgraph.aws4.cloud_extension_ros;" vertex="1" parent="Zxz7v_TV_L8BSBhZAzVD-16">
          <mxGeometry x="35" y="110" width="78" height="78" as="geometry" />
        </mxCell>
        <mxCell id="Zxz7v_TV_L8BSBhZAzVD-21" value="" style="edgeStyle=orthogonalEdgeStyle;rounded=0;orthogonalLoop=1;jettySize=auto;html=1;" edge="1" parent="Zxz7v_TV_L8BSBhZAzVD-16" source="Zxz7v_TV_L8BSBhZAzVD-22" target="Zxz7v_TV_L8BSBhZAzVD-23">
          <mxGeometry relative="1" as="geometry" />
        </mxCell>
        <mxCell id="Zxz7v_TV_L8BSBhZAzVD-22" value="" style="sketch=0;points=[[0,0,0],[0.25,0,0],[0.5,0,0],[0.75,0,0],[1,0,0],[0,1,0],[0.25,1,0],[0.5,1,0],[0.75,1,0],[1,1,0],[0,0.25,0],[0,0.5,0],[0,0.75,0],[1,0.25,0],[1,0.5,0],[1,0.75,0]];outlineConnect=0;fillColor=#dae8fc;strokeColor=#6c8ebf;dashed=0;verticalLabelPosition=bottom;verticalAlign=top;align=center;html=1;fontSize=12;fontStyle=0;aspect=fixed;shape=mxgraph.aws4.resourceIcon;resIcon=mxgraph.aws4.machine_learning;" vertex="1" parent="Zxz7v_TV_L8BSBhZAzVD-16">
          <mxGeometry x="206" y="110" width="78" height="78" as="geometry" />
        </mxCell>
        <mxCell id="Zxz7v_TV_L8BSBhZAzVD-23" value="" style="sketch=0;outlineConnect=0;fillColor=#7EA6E0;strokeColor=#6c8ebf;dashed=0;verticalLabelPosition=bottom;verticalAlign=top;align=center;html=1;fontSize=12;fontStyle=0;aspect=fixed;shape=mxgraph.aws4.workspaces_family_amazon_workspaces_core;" vertex="1" parent="Zxz7v_TV_L8BSBhZAzVD-16">
          <mxGeometry x="375" y="110" width="77" height="78" as="geometry" />
        </mxCell>
        <mxCell id="Zxz7v_TV_L8BSBhZAzVD-24" value="Local Data" style="text;html=1;align=center;verticalAlign=middle;resizable=0;points=[];autosize=1;strokeColor=none;fillColor=none;fontStyle=1;fontSize=15;" vertex="1" parent="Zxz7v_TV_L8BSBhZAzVD-16">
          <mxGeometry x="24" y="193" width="100" height="30" as="geometry" />
        </mxCell>
        <mxCell id="Zxz7v_TV_L8BSBhZAzVD-25" value="Local Model&lt;div style=&quot;font-size: 15px;&quot;&gt;Training&lt;/div&gt;" style="text;html=1;align=center;verticalAlign=middle;resizable=0;points=[];autosize=1;strokeColor=none;fillColor=none;fontStyle=1;fontSize=15;" vertex="1" parent="Zxz7v_TV_L8BSBhZAzVD-16">
          <mxGeometry x="195" y="188" width="100" height="50" as="geometry" />
        </mxCell>
        <mxCell id="Zxz7v_TV_L8BSBhZAzVD-26" value="Local Weights" style="text;html=1;align=center;verticalAlign=middle;resizable=0;points=[];autosize=1;strokeColor=none;fillColor=none;fontStyle=1;fontSize=15;" vertex="1" parent="Zxz7v_TV_L8BSBhZAzVD-16">
          <mxGeometry x="353.5" y="193" width="120" height="30" as="geometry" />
        </mxCell>
        <mxCell id="Zxz7v_TV_L8BSBhZAzVD-48" style="rounded=0;orthogonalLoop=1;jettySize=auto;html=1;entryX=0.5;entryY=0;entryDx=0;entryDy=0;strokeWidth=3;" edge="1" parent="1" source="Zxz7v_TV_L8BSBhZAzVD-28" target="Zxz7v_TV_L8BSBhZAzVD-1">
          <mxGeometry relative="1" as="geometry" />
        </mxCell>
        <mxCell id="Zxz7v_TV_L8BSBhZAzVD-50" style="rounded=0;orthogonalLoop=1;jettySize=auto;html=1;entryX=0.5;entryY=0;entryDx=0;entryDy=0;strokeWidth=3;" edge="1" parent="1" source="Zxz7v_TV_L8BSBhZAzVD-28" target="Zxz7v_TV_L8BSBhZAzVD-17">
          <mxGeometry relative="1" as="geometry" />
        </mxCell>
        <mxCell id="Zxz7v_TV_L8BSBhZAzVD-28" value="" style="rounded=0;whiteSpace=wrap;html=1;strokeWidth=4;dashed=1;" vertex="1" parent="1">
          <mxGeometry x="128" y="30" width="913" height="330" as="geometry" />
        </mxCell>
        <mxCell id="Zxz7v_TV_L8BSBhZAzVD-29" value="FedAvg. Strategy" style="text;html=1;align=center;verticalAlign=middle;resizable=0;points=[];autosize=1;strokeColor=none;fillColor=none;fontSize=22;fontStyle=1" vertex="1" parent="1">
          <mxGeometry x="670" y="72.5" width="190" height="40" as="geometry" />
        </mxCell>
        <mxCell id="Zxz7v_TV_L8BSBhZAzVD-34" value="" style="sketch=0;outlineConnect=0;fillColor=#FFD966;strokeColor=#d6b656;dashed=0;verticalLabelPosition=bottom;verticalAlign=top;align=center;html=1;fontSize=12;fontStyle=0;aspect=fixed;shape=mxgraph.aws4.workspaces_family_amazon_workspaces_core;" vertex="1" parent="1">
          <mxGeometry x="640" y="156" width="77" height="78" as="geometry" />
        </mxCell>
        <mxCell id="Zxz7v_TV_L8BSBhZAzVD-38" value="" style="ellipse;whiteSpace=wrap;html=1;aspect=fixed;dashed=1;strokeWidth=3;fontSize=18;" vertex="1" parent="1">
          <mxGeometry x="210" y="112.5" width="165" height="165" as="geometry" />
        </mxCell>
        <mxCell id="Zxz7v_TV_L8BSBhZAzVD-36" value="Averaged&amp;nbsp;&lt;div style=&quot;font-size: 17px;&quot;&gt;Central Weights&lt;/div&gt;" style="text;html=1;align=center;verticalAlign=middle;resizable=0;points=[];autosize=1;strokeColor=none;fillColor=none;fontStyle=1;fontSize=17;" vertex="1" parent="1">
          <mxGeometry x="222.5" y="285" width="140" height="50" as="geometry" />
        </mxCell>
        <mxCell id="Zxz7v_TV_L8BSBhZAzVD-37" value="Flagship&lt;div&gt;Weight&lt;/div&gt;" style="text;html=1;align=center;verticalAlign=middle;resizable=0;points=[];autosize=1;strokeColor=none;fillColor=none;fontStyle=1;fontSize=15;" vertex="1" parent="1">
          <mxGeometry x="640" y="255" width="80" height="50" as="geometry" />
        </mxCell>
        <mxCell id="Zxz7v_TV_L8BSBhZAzVD-39" value="" style="labelPosition=right;align=left;strokeWidth=8;shape=mxgraph.mockup.markup.curlyBrace;html=1;shadow=0;strokeColor=#000000;direction=north;fontSize=12;fontStyle=0" vertex="1" parent="1">
          <mxGeometry x="600" y="145" width="20" height="100" as="geometry" />
        </mxCell>
        <mxCell id="Zxz7v_TV_L8BSBhZAzVD-40" value="" style="labelPosition=right;align=left;strokeWidth=8;shape=mxgraph.mockup.markup.curlyBrace;html=1;shadow=0;strokeColor=#000000;direction=north;fontSize=12;fontStyle=0;rotation=-180;" vertex="1" parent="1">
          <mxGeometry x="910" y="145" width="20" height="100" as="geometry" />
        </mxCell>
        <mxCell id="Zxz7v_TV_L8BSBhZAzVD-41" value="" style="sketch=0;outlineConnect=0;fontColor=#232F3E;gradientColor=none;fillColor=#7EA6E0;strokeColor=none;dashed=0;verticalLabelPosition=bottom;verticalAlign=top;align=center;html=1;fontSize=12;fontStyle=0;aspect=fixed;shape=mxgraph.aws4.workspaces_family_amazon_workspaces_core;" vertex="1" parent="1">
          <mxGeometry x="810" y="156" width="77" height="78" as="geometry" />
        </mxCell>
        <mxCell id="Zxz7v_TV_L8BSBhZAzVD-42" value="+" style="text;html=1;align=center;verticalAlign=middle;resizable=0;points=[];autosize=1;strokeColor=none;fillColor=none;strokeWidth=3;fontSize=45;fontStyle=1" vertex="1" parent="1">
          <mxGeometry x="740" y="158" width="50" height="70" as="geometry" />
        </mxCell>
        <mxCell id="Zxz7v_TV_L8BSBhZAzVD-43" value="Mid-Range&lt;div&gt;Weight&lt;/div&gt;" style="text;html=1;align=center;verticalAlign=middle;resizable=0;points=[];autosize=1;strokeColor=none;fillColor=none;fontStyle=1;fontSize=15;" vertex="1" parent="1">
          <mxGeometry x="800" y="255" width="100" height="50" as="geometry" />
        </mxCell>
        <mxCell id="Zxz7v_TV_L8BSBhZAzVD-44" value="=" style="text;html=1;align=center;verticalAlign=middle;resizable=0;points=[];autosize=1;strokeColor=none;fillColor=none;strokeWidth=3;fontSize=40;fontStyle=1" vertex="1" parent="1">
          <mxGeometry x="400" y="165" width="50" height="60" as="geometry" />
        </mxCell>
        <mxCell id="Zxz7v_TV_L8BSBhZAzVD-49" style="rounded=0;orthogonalLoop=1;jettySize=auto;html=1;entryX=0.098;entryY=0.992;entryDx=0;entryDy=0;entryPerimeter=0;strokeWidth=3;exitX=0.25;exitY=0;exitDx=0;exitDy=0;" edge="1" parent="1" source="Zxz7v_TV_L8BSBhZAzVD-1" target="Zxz7v_TV_L8BSBhZAzVD-28">
          <mxGeometry relative="1" as="geometry">
            <mxPoint x="220" y="530" as="sourcePoint" />
          </mxGeometry>
        </mxCell>
        <mxCell id="Zxz7v_TV_L8BSBhZAzVD-51" style="rounded=0;orthogonalLoop=1;jettySize=auto;html=1;entryX=0.924;entryY=1.005;entryDx=0;entryDy=0;entryPerimeter=0;strokeWidth=3;exitX=0.75;exitY=0;exitDx=0;exitDy=0;" edge="1" parent="1" source="Zxz7v_TV_L8BSBhZAzVD-17" target="Zxz7v_TV_L8BSBhZAzVD-28">
          <mxGeometry relative="1" as="geometry" />
        </mxCell>
        <mxCell id="Zxz7v_TV_L8BSBhZAzVD-55" value="" style="shape=image;verticalLabelPosition=bottom;labelBackgroundColor=default;verticalAlign=top;aspect=fixed;imageAspect=0;image=data:image/png,iVBORw0KGgoAAAANSUhEUgAAAlgAAALuCAYAAABy9Wi0AAAABmJLR0QA/wD/AP+gvaeTAAAgAElEQVR4nO3dd9wddZn//1caCRAgCRBAuvRedalKEcsKKgpfVAR0/WJFXdfeVv2tuti+lkVXBBtrY1lAQRARFVSkiUiT3juhQ0J6fn9MsoaQ5D7nvq/PXDNzXs/H4/0gKjnnM9c9nrnumWvmgCRJkiRJkiRJkiRJkiRJkiRJkiRJkiRJknowqsd/79/7+HclSZKW56PA/OxFlNRr0zQLWKHkQiRJ0sCYCkzLXkRJo3v892YVXYUkSRoka2YvoDQbLEmSVDcbrIVmF12FJEkaJDZYC3kGS5IkRZmavYDSbLAkSVLdPIO1kA2WJEmKYoO1kA2WJEmKYoO1kEPukiQpig3WQp7BkiRJUWywFrLBkiRJUWywFrLBkiRJUdag9x6klWywJElS3cYAk7MXUZJD7pIkKUOnLxN6BkuSJGWwwcIGS5IkxbLBwgZLkiTFssHCGSxJkhSr01/47BksSZKUwTNY2GBJkqRYNljYYEmSpFg2WDiDJUmSYtlgAbeXXIQkSRo4a2QvoKReG6yzgK+VXIgkSRooawKjshdRSj8bNhY4F9i30FokSdJgmQI8mr2IEvr5Juu5wCHArYXWIkmSBktn57D6abAAHgFeDcwosBZJkjRYbLAWcyVwdPRCJEnSwLHBWsKPgf8XuRBJkjRwbLCW4oPAOVELkSRJA8cGaynmAYcDtwStRZIkDRYbrGVYNPQ+PWAtkiRpsEzNXkApI22wAK4CjgQWBLyWJEkaHJ7BGsJpwJeCXkuSJA2GzjZYkY+oHw38AnhZ4GtKkqTuugdYL3sRJUR/B9Bk4FJg0+DXlSRJ3TMLmJC9iBKiLhEu8igOvUuSpN6MB1bNXkQJ0Q0WwNXAETj0LkmShtbJOwlLNFgApwOfL/TakiSpOzo56D624Gt/Ang+sF/B95CkJlsAPLbYf350sT8/RsyZ/hV59gzLJJ45Y7sCsHLAe0klrJG9gBJKNlhzgcOAy4CNCr6PJC3yJNVnzwyq4dlZC/88d+H/Bn9vcp4C5gAzgaeX8e8ser2l/TvzgCeW8uf5wOOB2xRpVapmbCKwysI/r7LwP08AVqNqziYt/POqC/+5+J/XxGZNsTyDNQwPAQcDFwIrFX4vtdfjVAelkXiC6iA3EosOpiOx6KA9EtOB2SN8jUUNxkg8TdVYjMSixmRJS/uZz6Gq35IW1XTRemZT1WjxpibqbFDXPbEwD47wdVYC1gbWojo4rrXwPy/687pUv1ivQ7lRFHWHDdYw/RX4v8CPa3gv1e+9wFezFyGpVjOAWxdmeVagesbRBguz0cJ/bkj1OJ8NsAFTR4fc62iwAH4CbAN8rKb3U32+DNwA/DJ7IZIaZzbLb8TGUjVZz12YbYCtF/55Y+Kf1ahm6uQZrDp33jFUB+EDanxP1WMa8DzgjuyFSOqMtYHtgJ2AHRZmC+o7MaD6nEMHvwWm7t8OVqcaet+45vdVeX8B9mLp8zaSFGECsC2wI1XDtQuwKzAuc1Eascupfo6dknH6dQvgEqq7UdQtpwOvwWFjSfUZS9Vs7QXsCexLR2/777C7qC4Vd0rW9e3DqOayvL7ePf8MfC17EZIG1uIN1wuonsU4KXVFGsrT+KSBUJ+mOtNhupV5dPBauqRW2wb4EPBrqsH77M9J8+xMXOZPr6UyzyCNAk6huqSkbnmU6in+N2cvRJKWMJHqMuKBwD9SPUZC+Z4L3Ja9iC6ZTHUQzu6cTXwup/oKD0lqqjFUzdY3gfvJ/9wc5Dx/iJ+VhmEL/v4UZtOtnIpzdpLaYxvgU8BN5H9+DloOHPrH0y5jshcAPEx1FutQPBh3zVZUlwsvyV6IJPVgGnA+1Rmt31E9sX4TPBtfh19TffOLCvgk+R20iY9D75LabAxwEFUDMJ/8z9Su5oO9/kDUv0VD79k/ZBOfR6i+d0yS2mxT4FiqL8vO/lztWr7Yx89BwzAJuJH8H7SJz5/xNLukblgZeDPVN5Nkf7Z2Jd/r6yegYdmcam4n+4dt4uPQu6Su2QM4Ey8fjjRn9Vt4Dc+Lgbnk/8BNfLzOLqmLtgdOwmPXcHNZ/yXXcH2c/B+4iY9D75K6bBPgeGAO+Z+3bcrtw6i1hmk01WnX7B+6ic+DdPCLPSVpMVsCJ+Olw17z1PDKrOGaCFxN/g/exOdKqkFRSeqynamerZX9mduG+IXPNdsMh967GofeJQ2Kg/Cr4YbKhsOurobtABwc7Gocepc0KMYB78GTBsvKrsMvrUbiU+T/8E185gD7IEmDYx2qOw6dz3pmvAEqySiqgcHsHcDE5xGqO28kaZDsCVxD/mdwU3LUyMrZLKOzF9CHBcDRwPXZC1G4yVTNs096lzRILgSeR/X1O3OT19IEa2QvIFKbGiyAJ6hOIT6UvRCF2wX4IQ69SxosTwMfAXYCrkheS7ap2QuINCZ7AcPwGNVOeDjtaxC1fFsBM6h+q5OkQfIg8F2quay9Gczj243Az7MXIfgE+deLTXwcepc06F5K1XBlfx7XnTMiiqeRGwX8hPwdwsTHoXdJg25N4GzyP4/rzMUhlVOIVYBryd8pTHz+jEPvkgbbGOCzDM7jHG6JKZuibAhMI3/HMPHxSe+SVN3cNQgPJ30yqmCKsz9+c3lX45PeJan62rhBuGLjlYsG+ij5O4aJj0PvklRZHfgD+Z/LJbN+WLUU6nvk7xwmPg69S1JlLPBt8j+XS2XnuFIp0kTgavJ3EBMfh94lqTIK+AL5n8sl8pLAOqXq2oPMngJeTjX0rm7xSe+SVFlANZ/6Dqo7DLukM09z71qDBXAn8Fr8XqcuejXw/uxFSFJD/CdwJN063q2ZvYAobfyqnF7cBswGXpS9EIXbl2rI8/bkdUhSE1wN3Ay8km6cNPkL8JvsRWho3yX/erKJj0PvkvRMB1OdWMj+fB5pTowujMqYAFxK/g5j4nMlsDKSpEVeQ/ufCemXPbfIc4GHyd9pTHx+gCRpcW+i3V+tc2F8SVTSnsAs8nccE58PIEla3NvJ/2webm4qUA8V9m7ydxwTn3lU39MlSfq7L5H/+TycPFaiGCprFPAT8nceE58HgQ2QJC0yBjiV/M/nfjMfWKFAPVTYBOAS8ncgEx+H3iXpmSYAF5H/+dxv1i1RjLp14ZkZ/ZgJvAq4N3shCrc9cBI+6V2SFplJ9fiGu7MX0qdOPGx00BosgPuAQ6meF6Ju8UnvkvRM9wOvAGZkL6QPnWiwuvok96HcRbWzdeZLJfW/fNK7JD3T/VSzqq/IXkiPzqF6Qr1a7ATyrzWb+Pikd0l6tm+T//ncS/65VAHqNIiXCBd3DNXQu7plMnAaDr1L0uLeTfVdf03XiUuEg95gzQIOA6ZlL0Thtge+mb0ISWqQmcDhwFPZCxnCGtkLiDDoDRbAHVTfQj4reyEKdyQ+6V2SFnc98J7sRQxhavYCFOtt5F93NvHxSe+S9Gz/Q/7n87Lyx4LbrSTHk79jmfg49C5Jz7Qm1d2F2Z/PS8sNBbdbSSYAl5G/c5n4/BlYEUnSIq8j/7N5aXm45EYrz9pUT73N3sFMfE7FJ71L0uJOJ/+zecnMB8aV3Gjl2Y3qbovsnczEx6F3Sfq7dYBHyf9sXjLrlNxo5TqK/B3MxMehd0l6pneS/9m8ZLYvusVK9z3ydzITnweADZAkQfW1eVeQ/9m8ePYvusU18DlYy/cW4PfZi1C4qcCZ+KR3SYLqzP47qBqbpmj909xtsJZvDvB/qIbe1S3bAyfh0LskAVwE/Ff2IhZjgzUAHgAOwSe9d9GrgfdnL0KSGuKDwOPZi1io9Q3WmOwFtMQ9VM/leHn2QhRuH6rLwHckr0OSsk2nel7gC7MXAlwHnJW9CNXnG+QP/pn4PIxPepckqGZT7yP/c/nU0htampcI+/PPwAXZi1C4KcBpOPQuSdOBz2Uvgg5cIlT/1gLuJL+7N2V+Y3LoXdKgGwfcQu7n8XXFt1KNtAfV0Ht2Q2Di824kSUeT+1k8rfwmqqmOIL8ZMPHxSe+SVJ3Fuo3cz+KxxbdSjfV18hsCEx+H3iXp7w8fzcpa5TdRTTUW+B35DYGJz5U49C5psI2netB21ufwtuU3sRzvIhyZucDrgXuzF6Jw2wPfzF6EJCWaBRyX+P5rJL63GmJHqltbs8+6mPj4pHdJg2wS8CQ5n7//p4btK8YzWDH+SvXF0Oqez+PQu6TB9Rh531HY6mdh2WDF+RHw1exFKNxo4Ic49C5pcP0H1Rmlutlg6X99gGroXd3ik94lDbLrgPMS3tcGS/9r0dD73dkLUbjtqb6LUpIG0QkJ79nqBktl7IBD712NQ++SBtFY4B7q/bw9v44NK8UzWGVcSfU1A+oeh94lDaK5wEk1v6dnsLRMXyL/jIuJj096lzSInkv1FTZ1fdY+WM9mqY3GAReQ3xCY+FwGTECSBkudx7S5tPhKW2sX3hJzgIOBW7IXonC7Uj2aY1T2QiSpRnVeJhxDdRe3tEzbA0+Rf9bFxMehd0mDZBIwk/o+Y7euZ7PieQarHlcBR1LtLOoWh94lDZLHgF/V+H6tHXS3warPacAXsxehcD7pXdKg+UmN79XaBkv1Ggv8lvzLWiY+Dr1LGhQTgRnU89n6tpq2KZxnsOo1F3gNcHP2QhTOoXdJg+Ip4Jya3mtqTe8Tzgarfo8CrwCeyF6Iwr0aeF/2IiSpBj+r6X28RKi+HQzMJ//SlonNPBx6l9R9U6geRVT6M/WndW1QNM9g5Tmd6g40dYtD75IGwSNUDx0tzUuEGpaPAWdlL0LhplDdNbpy9kIkqaDTa3gPLxFq2CYDN5F/acvE51QcepfUXetSftTl/tq2Rp20IzCd/IbAxOddSFJ3XUHZz9A5tPQXVS8RNsNfgddT7Uzqlq8CL81ehCQV8ovCrz+W6kqPNCKfIf+Mi4nPwzj0Lqmb9qT8Z+gWtW2NOms0cCb5DYGJz5U49C6pe8ZQ/RJZ8vNz79q2JpCXCJtlPtWlwr9lL0ThtgdOoqWzBJK0DPOA8wq/RyvvJLTBap4nqZ4I/nj2QhTOJ71L6qJfFn59GyyFuQE4iuqMlrrl8zj0LqlbzqG6lFeKDZZC/Rz4YvYiFG408ANg/eyFSFKQ+4FrC77+GgVfuxgbrGb7CNXDKtUtU6lubXboXVJX/Kbga7fy63JssJptAfAmHHrvIofeJXXJ7wq+disvEaodNgceI/9RAyY+70eS2m81YC5lPievrHE7NIAOorodNrshMLGZi0PvkrrhUsp8Tt5b50ZE8RJhe5wJfDp7EQo3BvgRPuldUvv9rtDrroHjFCpsNHAW+WddTHwuAyYgSe31j5T7jJxU43ZoQE0EriG/ITDx+TGS1F6rUG4Oa7MatyOElwjb5yngYKqhd3XL6/BJ75La60mqEwAltO5OQhusdroJOIxq6F3d4pPeJbXZnwq9buuehWWD1V7nAp/KXoTCOfQuqc0uKvS6nsFSrT4L/Hf2IhRuCnAaPuldUvuUOoNlg6VaLQDeTLlr3sqzPXBC9iIkqU+3UH03YTQbLNXuKeBQ4InshSjc64B3ZS9Ckvp0SYHXbN0XPttgdcP1wCE49N5FX8Ghd0ntcmmB13TIXWl+DXwiexEK59C7pLb5S4HXbN0lQnXLKOCn5D8w08TnShx6l9QOU4n/DLy71i2QlmJl4CryGwITH5/0Lqkt7iH2829mvcsfOS8Rds904BXAQ9kLUTif9C6pLaIvE44HVg1+zaJssLrpdqqDsUPv3eOT3iW1wcDPYdlgddd5wKezF6FwY4AfAOtnL0SSluPKAq9pg6XG+AzV0Lu6ZSrwCxx6l9RcVxV4TRssNcYC4J+Ay7MXonA+6V1Sk90KPB38mq16FpYNVvc9DbwGmJa9EIVz6F1SU80Hbgh+Tc9gqXHuoDoYz81eiMI59C6pqf4W/Ho2WGqk3wAfzl6Ewi160vtzsxciSUu4Lvj1bLDUWF8Gvp+9CIWbApyGQ++SmsUGSwPlXcA12YtQuB2A47IXIUmLiW6w1gh+PSncBsCD5H/1i4mPQ++SmmIFqgdeR32+3VHv8qXh2Q+YQ35DYGIzF4feJTXHXcR9vkU/9qEoLxEOrt8CH8hehMI59C6pSW4LfK0JwMTA1yvKBmuwfRX4bvYiFM6hd0lNEdlgQYsG3W2w9E7gsuxFKNwO+KR3SflssDSwZlI96f3B7IUonE96l5TNBksD7S7gDVR3e6hb/h14QfYiJA2s24NfzwZLrfNr4L3Zi1C4ccDpOPQuKcedwa/Xmi98tsHS4v4D+E72IhTOoXdJWe4Lfj3PYKm1jgEuzV6Ewjn0LinDTOCxwNezwVJrzQReBdybvRCFc+hdUob7A1/LBkutdh9wKDA7eyEK93l80rukekVeJrTBUuv9CfiX7EUonE96l1Q3GyxpCd8ATsxehMI59C6pTgPZYElDGQ9cTP6XGJv4/BhJkpRmbeBu8hsCEx8vA0uSlGh3qjsMsxsCE5u5OPQuSVKqt5HfEJj4PIxD75IkpTqe/IbAxOevOPQuSVKaccDvyW8ITHwcepckKZFD792NQ++SJCXaDYfeuxiH3iVJSnYU+Q2BiY9D75IkJftP8hsCE5+/AishSZJSjAMuIL8hMPH5EZIkKc1awF3kNwQmPg69S5KUaGdgBvkNgYmNQ++SJCU7gvyGwMTHoXdJkpIdR35DYOLj0LskSYnGAeeT3xCY+Dj0LklSorWAO8lvCEx8HHqXJCnRTsB08hsCExuH3iVJSvYG8hsCEx+H3iVJSvY18hsCEx+H3iVJSjQW+C35DYGJj0PvkiQlWh24lfyGwMTHoXdJkhLtiEPvXcxc4CVIkqQ0h5PfEJj4OPQuSVKyr5DfEJj4OPQuSVKiMcA55DcEJj4OvUuSlGgKcAv5DYGJj0PvkiQl2gF4ivyGwMTGoXdJkpK9jvyGwMTHoXdJA29M9gI00K4BVgH2yF6IQq0I7AOcBMzJXYokSYNpDHA2+WddTHwcepckKdEU4GbyGwITH4feJUlKtD0OvXcxDr1LkpTs1cB88psCExuH3iUNHIfc1STXUT0NfM/shSiUQ++SJCUbjUPvXY1D75IkJZoM3ER+Q2Di814kSVKarYDHyW8ITGwcepckKdnBOPTexTj0LqnzHHJXk10PjAf2zl6IQjn0LklSstHAL8g/62Li49C7JEmJJgM3kt8QmPg49C5JUqItcei9i3HoXZKkZK/EofcuxqF3SZ3jkLva5AZgLPCC7IUolEPvkiQlGw2cSf5ZFxMfh94lSUq0CnAt+Q2BiY9D75IkJdoCeIz8hsDExqF3SZKSvQKYR35TYGLj0Luk1nPIXW12A9VM1j7J61Ash94ltZ4NltruAmBbYOvshSjU2sDGwGnZC5EkaVA59N7dOPQuSVKizYFHyW8ITGwcepckKdlBOPTexTj0Lql1nMFSl9y48J/7pq5C0Rx6l9Q6Nljqmt9TDbxvk70QhXLoXZKkZBOBa8i/tGXi49C7JEmJNsOh9y7GoXdJkpK9mOqAnN0UmNg49C6p8ZzBUpfdQnVX4X7ZC1Eoh94lNZ4Nlrruj8BWOPTeNQ69S5KUbCJwNfmXtkx8HHqXJCnRRsBD5DcEJjYOvUuSlOwAHHrvYhx6l9Q4zmBpkNwKzAZelL0QhXLoXVLj2GBp0FwIbAlsm70QhXLoXVKj2GBpEJ0FvAxYJ3shCrUd8ARwcfZCJEkaVBsB08ifHzKxmYNf9i1JUqoXUR2Qs5sCExuH3iWl8xKhBtmtwEyquwvVHQ69S0png6VB9ycceu8ih94lpbLBkuBs4KXAc7IXolDbAY/j0LskSWk2BB4kf37IxMahd0mSku2PQ+9djEPvkmrnJULp724DZgAvzl6IQjn0Lql2NljSM11E9YysHZPXoVgOvUuqlQ2W9Gy/wqH3LnLoXZKkZBvg0HsX49C7JEnJ9sWh9y7GoXdJkpL9M/kNgYnPX4GVkKRCnMGSlu9iqsuFO2UvRKHWprqZwaF3SUXYYElDOxd4CbBu9kIUanscepckKdX6wAPkX9oysXHoXZKkZHsCs8hvCkxsHHqXJCnZu8hvCEx8HHqXFMoZLKk/l1JdLtw5eyEK5dC7pFA2WFL/zqX6vkKH3rvFoXdJkpKtA9xD/qUtExuH3iWFGJW9AKnF9gB+B6yQvRCFegTYFbgteyGS2mt09gKkFvsT8N7sRSjcFKpZLIfeJQ2bM1jSyFxGNYu1S/ZCFMqhd0kjYoMljdw5VHM7G2QvRKEcepckKdnawN3kD2kbh94lSeqU3YGZ5DcFJjYPARsjSZLSvJX8hsDE5wocepfUB2ewpFiXA8/BofeucehdUl9ssKR4vwL2ATZMXodiOfQuSVIyh967GYfeJfXEJ7lL5ewGnA+MT16HYj0MPA+f9C5pOXySu1TOxcBbshehcKvjk94lDcEZLKmsK6kuF+6avRCFcuhd0nLZYEnlnQu8gOqArO5w6F2SpGRrAXeRP6RtHHqXVAOH3KX67Az8EVgxeyEK5dC7pGdxyF2qz1+onvSubnHoXdKzOIMl1esqYE3g+dkLUSiH3iU9gw2WVL9fA3vj0HvXbA88BlySvRBJkgbVVOBO8oe0jUPvkgpwyF3KsxPV0LuzO93i0Lskh9ylRFfg0HsXOfQuyRksKdlVwBTgH7IXolAOvUsDzgZLynce1dD7xtkLUSiH3iVJSrY6cCv5Q9rGoXdJARxyl5pjR+BCnN3pGofepQHkkLvUHH8F3pK9CIVz6F0aQM5gSc1yNbAasHv2QhTKoXdpwNhgSc1zHtVdhZtmL0ShHHqXJCnZFOAW8oe0jUPvkobBIXepuXagGnpfOXshCuXQuzQAHHKXmutK4OjsRSicQ+/SAHAGS2q2a4CJwB7ZC1Eoh96ljrPBkprvN8Dzgc2yF6JQDr1LkpRsCnAz+UPaxqF3ST1wyF1qj+2BP+HQe9c49C51kEPuUntcBRxJdeZD3eHQu9RBzmBJ7XIdsCKwV/ZCFMqhd6ljbLCk9vkt1SUlh967xaF3SZKSTQZuIn9I2zj0LmkpHHKX2msr4GJg1eyFKJRD71IHOOQutdd1wFE49N41Dr1LHeAMltRu1wPjgb2zF6JQDr1LLWeDJbXf74Bdgc2zF6JQDr1LkpRsEnAj+UPaxqF3STjkLnXJllRD76tlL0ShHHqXWsghd6k7rseh9y5y6F1qIWewpG65ARgLvCB7IQrl0LvUMjZYUvdcAOyCQ+9d49C7JEnJVgGuJX9I2zj0Lg0kh9yl7tqC6myHQ+/d4tC71AIOuUvddQNwJDA/eyEK5dC71ALOYEnddgPVL1L7JK9DsRx6lxrOBkvqvguAbYGtsxeiUNsDj+LQuyRJaVYBriF/SNs49C4NBIfcpcGxOdXZjknZC1Eoh96lBnLIXRocNwKvBeZlL0ShHHqXGsgZLGmw3EJ1acnLSt3i0LvUMDZY0uD5A9XA+zbZC1Eoh94lSUo2Ebia/CFt49C71EkOuUuDazPgUhx67xqH3qUGcMhdGlw3AYfh0HvXOPQuNYAzWNJgu4WqwdoveyEKtTawIXB69kKkQWWDJemPwFY49N41Dr1LkpRsInAV+UPaxqF3qRMccpe0yEbAZcAayetQLIfepQQOuUta5HbgzcD85HUo1nyqs1mSauQMlqTF3QDMBl6UvRCFeBrYH7gueyGSJA26UcBPyZ8fMiPPEUiSpMZYEbic/AbBDD/HPuunKkmS0m0ETCO/UTD95+c4YytJUmPtT3Wrf3bDYHrPVVSP3ZCUyCF3SctzGzATOCB7IerJg1RN8YPZC5EkSUP7MflnZszyMxPYa1k/QEmS1DwrAn8mv4kwy84bl/XDkyRJzbUh1aWn7EbCPDtfXc7PTZIkNdx+OPTetPwC52mlxvH/lJL6cRswHXhJ9kIEwLXAP1LNX0lqEBssSf26iOpy4U7ZCxlwj1Ld3Xlv9kIkSVKMCcBl5F8eG9TMwUdnSJLUSRvg0HtW3t3Dz0eSJLXUXsAs8huOQcp/9vSTkSRJrfYe8puOQclvgXG9/VgkSVLbfYf85qPruQmY0usPRJIktd8E4FLym5Cu5jFgq55/GpIkqTPWBx4gvxnpWuYCL+3j5yBJkjpmTxx6j84H+/oJSJKkTjqG/KakKzmhz9pLkqQOO5H85qTtuQBYod/CS5Kk7poAXEJ+k9LW3AGs1XfVJUlS560D3EN+s9K2PAXsOIx6S5KkAbEHDr33k3nAwcOqtCRJGijvIL9xaUs+OcwaS5KkAfRt8puXpufHwKjhFliSJA2eccDvyW9imppLgBWHXV1JkjSw1gbuJr+ZaVruprohQJIkaVh2B2aS39Q0JdOBXUZUUUmSJOCt5Dc2Tch84NAR1lKSJOl/HU9+g5Odz424ipIkSYsZ9KH3nwGjR1xFSZKkJawN3EV+s1N3rgQmBtRPkiRpqXZjsIbeHwA2DKmcJEnSchxJfuNTR2YCewbVTJIkaUjfJL8BKp2jwqolSZLUg3HA+eQ3QaXylbBKSZIk9eG5wFzym6Ho/IaqgZQkSarVKOAU8puh6FwDrBpYJ0mSpJ59ivxmKDrTgI0DayRJktSzw6m+Nia7IYrMHOBFkUWSJEnq1W7A0+Q3RNE5JrJIkiRJvdoAuI/8Zig634wskiRJUq9WpRoAz26GouMdg5IkKcUY4Gzym6Ho3ARMCayTJElSz75IfjMUnUeBLSOLJEmS1Ku3kt8MRWcu8JLIIkmSJPVqP2A2+Q1RdN4fWSRJkqRebQY8TH4zFJ0TIoskSZLUq8nA9eQ3Q9E5H+8YlCRJCcYC55LfDEXnDmCtwDpJkiT17ETym6HoPAXsEFkkSZKkXr2L/GYoOvOAgyOLJEmS1KsDqR5fkN0QRecTkUWSJEnq1XbAE+Q3Q9H5ETAqsE6SJEk9mQrcRn4zFJ1LgAmBdZIkSerJeOCP5DdD0bkLWCewTpIkSbNqBRwAABxcSURBVD37AfnNUHSmAztHFkmSJKlXHya/GYrOfOCQyCJJkiT16jCqZiS7IYrOZyKLJEmS1KvnATPIb4aiczLeMShJkhKsB9xDfjMUnSuBiYF1kiRJ6snKwOXkN0PReQDYMLBOkiRJPRkN/A/5zVB0ZgJ7BNZJkiSpZ/8f+c1QiRwVWSRJkqRevYFu3jH45cgiSZIk9Wp34Gnym6HonEl12VOSJKlWmwDTyG+GonM1sEpgnSRJknqyGnAt+c1QdKYBGwfWSZIkqSdjgF+S3wxFZxawd2CdJEmSevZl8puhEnlHZJEkSZJ69TbyG6ES+UZkkSRJknq1PzCb/GYoOucBYwPrJEmS1JPNgYfJb4aicyMwJbBOkiRJPZkMXE9+MxSdR4EtA+skSZLUkxWAC8hvhqIzF3hJYJ0kSZJ69h3ym6ESeV9kkSRJknr1HvIboRL5dmSRJEmSenUQMI/8Zig65wPj4sokSZLUm+2AJ8hvhqJzC7B6YJ0kSZJ6shZwG/nNUHQeB7YOrJMkSVJPxgMXkt8MRWce8KrAOkmSJPVkFHAy+c1QiXwssE6SJEk9+yj5jVCJ/JCqeZQkSarVa4H55DdD0bkYmBBYJ0mSpJ48H5hBfjMUnbuAtQPrJEmS1JP1gHvJb4aiMx3YObBOkiRJPVkZ+Av5zVB05gOHBNZJkiSpJ6OBU8lvhkrk3wLrJEmS1LPPkt8IlcjJeMegJElKcAT5jVCJXAasGFgnSZKknrwQmEV+MxSd+4ENAuskSZLUk02Ah8hvhqIzE9gjsE6SJEk9WQ34G/nNUIkcGVgnSZKknowFziG/ESqRLwbWSZIkqWdfJb8RKpEzqB43IUmSVKu3k98IlcjVwCqBdZIkSerJi4A55DdD0XkQ2CiuTJIkSb3ZAniE/GYoOrOAvQPrJEmS1JM1gFvIb4ZK5J8C6yRJktSTFYDfk98IlchxgXWSJEnq2XfJb4RK5Dyqx01IkiTV6l/Ib4RK5EZgcmCdJEmSevIKYB75zVB0HqUa2JckSarV9sCT5DdD0ZkDvDiwTpIkST1ZC7id/GaoRN4bVyZJkqTerARcRn4jVCLHB9ZJkiSpJ6OA/ya/ESqR3wHj4kolSZLUm0+Q3wiVyM3A6oF1kiRJ6snrgPnkN0PReQzYOrBOkiRJPfkH4Gnym6HozAVeFlgnSZKknqwP3Ed+M1QiHwmskyRJUk9WBq4gvxEqkR9SDe1LkiTVZjRwGvmNUIlcBEyIK5UkSVJv/p38RqhE7gTWDqyTJElST44mvxEqkaeAnQLrJEmS1JN9gdnkN0PRmQ+8JrBOkiRJPdkUeIj8ZqhEPh1YJ0mSpJ5MAq4jvxEqkZ/iHYOSJKlmY4Ffkd8IlcilwIpxpZIkSerN18lvhErkbuA5gXWSJEnqyTvIb4RKZCawe2CdJEmSenIAMIf8ZqhEjgiskyRJUk+2BR4nvxEqkS8E1kmSJKknawK3kt8IlcgZVF/zI0mSVJvxwB/Ib4RK5CpglbhSSZIk9eZ75DdCJfIgsFFcmSRJknrzfvIboRKZBewVWCdJkqSevBKYR34zVCJvCqyTJElST3YAniS/ESqRrwfWSZIkqSfrAveQ3wiVyFnAmLhSSZIkDW0l4M/kN0IlcgMwOa5UkiRJQxsFnEJ+I1QijwBbxJVKkiSpN58kvxEqkTlUX/EjSZJUq9cD88lvhkrkPYF1kiRJ6sluwNPkN0Il8q3AOkmSJPVkA+A+8huhEvktMC6uVJIkSUObCFxBfiNUIjcDq8eVSpIkaWhjgLPJb4RK5DFgq7hSSZIk9eYL5DdCJTIXeFlgnSRJknryFvIboVL5cGCdJEmSerIvMJv8RqhETgyskyRJUk82Ax4mvxEqkYuACXGlkiRJGtok4DryG6ESuRNYO65UkiRJQxsLnEt+I1QiTwE7xpVKkiSpNyeS3wiVyHzg1YF1kiRJ6skx5DdCpfKpuDJJkiT15kCq50JlN0Il8hNgVFypJEmShrYt8AT5jVCJXAqsGFcqSZKkoU0FbiO/ESqRu4HnxJVKkiRpaOOBP5DfCJXIDGCXuFJJkiT15vvkN0KlckRcmSRJknrzIfKboFI5NrBOkiRJPXkVMI/8RqhEfg6MjiuVJEnS0J5HNZ+U3QiVyFXAxLhSSZIkDW094B7yG6ESeQDYKKxSkiRJPVgJuJz8RqhEZgJ7xZVKkiRpaKOA/yG/ESqVN4ZVSpIkqUefJr8JKpWvBtZJkiSpJ28A5pPfCJXIL4AxcaWSJEka2u7A0+Q3QiVyDbBqXKkkSZKG9lxgGvmNUIk8AmweVypJkqShrQZcS34jVCJzgAPiSiVJkjS0McDZ5DdCpfLuuFJJkiT15kvkN0Gl8p+BdZIkSerJ28hvgkrlt8C4uFJJkiQNbX9gNvmNUIncBEyJK5UkSdLQNgceJr8RKpHHgK3iSiVJkjS0ycD15DdCJTIXeGlcqSRJkoa2AnAB+Y1QqXwwrlSSJEm9OZH8JqhUTgiskyRJUk/eTX4TVCoXUJ2dkyRJqs2BVPNJ2Y1QidwBrBVXKkmSpKFtBzxBfiNUIk8BO8aVSpIkaWhTgdvIb4RKZB7w6rhSSZIkDW08cCH5jVCpfDKuVJIkSb05ifwmqFR+DIyKK5UkSdLQPkJ+E1QqlwArxpVKkiRpaIcB88lvhErkbmCduFJJkiQN7fnADPIboRKZDuwSVypJkqShrQfcS34jVCLzgUPjSiVJkjS0lYG/kN8Ilcrn4kolSZI0tNHAqeQ3QaXys4XbKEmSVJvPkN8ElcqVwMS4UkmSJA3tULp7x+DDwKZxpZIk9eAA4IVUD6uWBtILgVnkN0IlMhPYM65UkqQeTAAepPocngv8GTgWOAhYLXFdUm02AaaR3wiVylFxpZIk9eiNLPtzeQ7PbLhWzVmiVM5qwLXkN0Gl8pW4UkmS+tDP3eiLN1wvwm/YUMuNBk4jvwkqld8A48KqJUnq1W6M7PP7SeAc4MMLX2tsvcuXRuZY8pugUrkJmBJXKklSH35E7Gf62+pdvjR8bye/CSqVacDGcaWSJPVhfapLfpGf68+vdQukYdofmE1+I1Qic6iu30uScnyW+M91Z7LUeJsDj5DfCJXKMXGlkiT1aQLxd6VfU+sWSMOwBnAL+U1QqXwzrlSSpGF4E/Gf7f9V6xZIfVoBuID8JqhUvGNQkvJdQfzn+7/UugVSn75LfhNUKt4xKEn59qbMZ/x+dW6E1I/3kt8ElcqjwJZxpZIkDdN/E/8ZPx+YXOdGSL16BTCP/EaoROYCL4krlSRpmEo8mmEBcHuN2yD1bEuqMzzZjVCpfCyuVJKkEfg3ynzO/6zOjZB6sRZV55/dBJXKCWGVkiSNRIlHMyzKv9a4HdKQJgAXkt8Elcr5eMegJDXFEZT7vD+oxu2QlmsUcDL5TVCp3EF1dk6S1AwXU+4zf70at0Naro+T3wSVylPADnGlkiSN0PMo95k/rcbtkJbrdVS3tGY3QiUyDzg4rlSSpADfo9zn/q9r3A5pmf4BmEF+I1Qqn4grlSQpwOqUPe58ob5NkZZufeBe8pugUvkR1WyZJKk5PkDZz/7X1bcp0rOtDPyF/CaoVC6huitSktQcYyj/KCC/pUNpRgOnkd8ElcpdwDph1ZIkRTmQsp//T1Id46QUnyO/CSqV6cDOcaWSJAX6JWWPAX+qb1OkZzqa/CaoVOYDh8SVSpIUaHPK37H+zdq2RlrMPsBs8huhUvlMWKUkSdG+TPnjwNG1bY200KbAQ+Q3QaVyMt4xKElNtTLwKOWPBbvWtUESwCTgb+Q3QaVyJTAxrFqSpGhvpvyxYDYwvq4NkkYDPye/CSqVh4BNwqolSSrhcsofD66pbWsk4GvkN0GlMhPYI65UkqQC9qOeY8IP6tog6R3kN0Elc1RcqSRJhZxBPceE99a1QRpsBwBzyG+CSuXLcaWSJBWyJeUfzbAo+9SzSRpk2wCPk98ElcqZ+KReSWqD46jnuDCf6oYuqZg1gVvJb4JK5WpglbBqSZJKmUL17Rp1HBtuHc4C/U1dvRoPnApsnL2QQh4CXkH1XVOSpGZ7M7BSTe91RU3vowH1PfLPMJXKLGDvuFJJkgoaB9xNfceIj9ezWRpE7yO/CSqZd8SVSpJU2GHUe4w4sJ7N0qB5JTCP/CaoVL4RVypJUg0uot7jxLr1bJYGyQ5UM0nZTVCpnAeMDauWJKm03aj3OHF/PZulQbIucA/5TVCp3Eh1F4okqT1Opt5jxa/q2SwNipWAP5PfBJXKo1QPqJMktccG1P+Q62OHu1gf06AljQK+D+ySvI5S5gGvBa7PXogkqS/HUP9Yh49oUJgPkX+GqWQ+ElcqSVJNJgIPU/8xw6sdCvF66vtep4x8O65UkqQafZj6jxlP4pU+BdgNeJr8JqhUzqd6OJ0kqV1WBB6g/uPGhXVsnLptA+A+8pugUrkFWD2sWpKkOr2TnGPHcXVsnLprItUQX3YTVCqPA1uHVUuSVKcVgDvJOX68uYbtU0eNAc4ivwkqlXnAq8KqJUmq21HkHUN2rmH71FGfJ78JKpmPxZVKklSz0cB15Bw/ZlGdPZP61vU7Bv+H6plekqR2Opi8Y8hVNWyfOmhfYDb5TVCpXAxMCKuWJKluY4BryTuOfL/4FqpzNgUeIr8JKpW7gLXDqiVJynA4uceS95TfRHXJJPKuZ9eR6TiUKEltNxa4kdzjyQuKb6U6YyxwLvlNUKnMBw4Jq5YkKcsbyT+erFp6I9Udx5HfBJXMv8WVSpKUZAXgdnKPJzeX3kh1x/8lvwEqmV9QDURKktrtTeQfU04tvpXqhJcDc8nfYUvlMqrvqZIktdvKwD3kH1c+XnpD1X7bUn1VTPbOWir3U32PoiSp/T5B/nFlAXBg6Q1Vu60J3Er+jloqM4E9wqolScq0DvAk+ceWBcB6hbdVLTYe+AP5O2nJHBlWLUlStuPJP64sAKaV3lC12/fJ30lL5othlZIkZduO5swK/7rwtqrFPkj+DloyZ1B9AagkqRvOJv/Y4i/wWq6X0ZzfAkrkBmByWLUkSdn2Jf/YsniOKLu5aqPnATPI3zlL5UFgo6hiSZLSjSf/K3GWzLZFt1itsy7NeHZIqcwC9g6rliSpCT5K/vFl8TxN9bVyEgArAX8mf8csmX8Kq5YkqQk2pnlXXS4rusVqlVHAKeTvlCVzXFi1JElN8XPyjy9L5oSiW6xW+TT5O2TJnIenayWpaw4i//iytBxTcqPVHocD88nfIUvlRrxjUJK6ZmXgDvKPMUvLXgW3Wy2xCzCd/J2xVJ6gevCcJKlbPkP+MWZpmQ+sVnC71QIbUH3JcfbOWCpzgBeHVUuS1BQvAOaRf5xZWm4quN1qgdWAa8nfEUvmvWHVkiQ1xSrAreQfY5aVU8ptuppuDM36OoESOT6sWpKkJvkm+ceY5eXj5TZdTfdF8nfAkvkdMC6sWpKkpngZzb8p66BiW69Geyv5O1/J3AysHlYtSVJTTAbuJv84M1TWL1UANdcewEzyd75SmQ7sHFYtSVKTfI/848xQebjY1quxNqP6wWfvfKUyD3hlWLUkSU3yFvKPM73kvFIFUDNNBq4nf8crmY+GVUuS1CS70J6rL18qVAM10FjgXPJ3upL5IdV3KUqSumUS1Wxt9nGm1xxRpgxqohPJ3+FK5iJgQli1JElNMQo4g/zjTD/xm0MGxLvJ39lK5k5g7bBqSZKa5F/IP870k6eprhqp4/YHZpO/w5XckXcLq5YkqUl2oz1zV4vylyKVUKNsR/Ulx9k7W6nMB14TVi1JUpNsQTvvev9+gVqoQaYCt5G/o5XMp8OqJUlqkqk0+3sGl5f3FaiHGmI88Efyd7KS+SneMShJXbQScCn5x5nh5oD4kqgpfkD+DlYylwIrhlVLktQUo4FTyD/OjCTedNVRHyZ/5yqZu4HnhFVLktQkx5J/nBlJHogviZrg5cBc8newUpkNvDCsWpKkJnkL1c1L2ceakeQ34VVRuucDM8jfuUrGJ+NKUje9k/Y3VwuAr0QXRrnWA+4lf8cqmS+EVUuS1CTvoBvN1QLgn4Jro0QrA5eTv1OVzBlUg4+SpG55G91prhYAu8aWR1lGA6eSv0OVzFXAKlEFkyQ1RhdmrhbPXLzDvTM+Tv4OVTKPAJuHVUuS1BSHAnPIP85E5sbQCinNG+hW579kZgF7hVVLktQUn6Kbx69TAmukJLtTfclx9s5UMm8Kq5YkqQnGAF8n//hSKv8aVypl2ASYRv6OVDJfD6uWJKkJVgJOJ//4UjIHh1VLtVsNuJb8nahkzqL6LUeS1A1TgUvIP76UziZRBVO9xgC/JH8HKpkbgMlRBZMkpdsCuIX840vpPImPE2qtfyd/ByqZJ4Btw6olScq2P9V382UfX+rIJUE1U83eRv7OUzJzgAPCqiVJyjQW+BrdvFNwWfl2SOVUq/2pvuQ4e+cpmfeEVUuSlGkd4Hzyjyt1510BtVONNgceJn/HKZlvhVVLkpRpkC4JLpl9Rl4+1WUQ7hj8EzAhqmCSpDTvBGaSf1zJyhojL6HqsAJwAfk7TMncDKweVTBJUopNgd+Tf0zJzN0jrqJq8x3yd5iSeQzYKqxakqS6jQY+BEwn/5iSnV+OsJaqydvJ31lKZj5wSFi1JEl12xg4m/zjSVPyxZGVU3U4CJhH/s5SMh8Oq5YkqU4TgGPp/p3t/eYNIymqytsSeJT8HaVkTgZGRRVMklSbF9L9G6+Gm51GUFcVthZwO/k7SclchHcMSlLb7Aj8mvxjSFMzF49tjbUC3X8o273AekH1kiSVtyZwHF4OHCo3D7fAKmsU1WWz7B2kZJ6i+g1IktR86wDHA7PIP360IT8bXplV2vvJ3zlKZj4O/0lSG6wGfJLqMTrZx4425djhFFtlvZbufxHmp6KKJUkqYkvgJAb7KewjiScRGmYH4Enyd4yS+TnVg+gkSc2zC/BDnLEaaXbpt/AqZ32qoe/snaJkLgVWjCqYJCnEROA9wHXkHye6kHnASn39BFTMBKrHFWTvFCXzILBRUL0kSSO3C/AV4CHyjxFdyq39/BBUzmjgVPJ3iJKZgadLJakJdgK+BtxJ/rGhqzmj559GkLF1v2FLfAZ4dfYiCnsrcHn2IiRpQG0EvBE4FNg6dSWD4W/ZCxAcRvfvGPxKWLUkSb3aGHg7cBYOrNedNw7941FJ+9D9nd47BiWpHqtRnaE6CbiP/M//Qc6uQ/yswvllvn+3PnAJ1ZNxu+p6YHeqh9NJkmKNArai+mX9ZcC+wMqZCxJQNVirUn1bSW2cwapMAn5Ft5urB6n+D29zJUkx1qRqpvaiumloR2yomugOam6uwAYLqstl36f6raOr5gKHA7cnr0OS2moFquPE9sA/AHsC2wFjMhelnlyX8aY2WPD/gFdmL6Kwo4HzshchSS0wHtgW2Ibq7r5tqM5OdfkKR9ddk/Gmg95gvYnqSblddjzVGTpJUmUFYAOqu/qWzJZU8zrqjusz3nSQG6wXAN/KXkRh5wPvyl6EJNVkHDAVWAtYe4k/r0l1M9PGwLp4N/UgSXkG1qDeRbgJcDGwRvZCCrqFak7g4eyFSNJyrER1WW5Vql/6Jy385ypUX1m2ItX38q22jExe+M9JdPszXcOzgGrfeKLuNx7EBms1qu8Y7PJQu6TBNRN4OnsRyzCK6mAn1eUuqsvBtRu0S4QrAGdicyWpuyYsjCS4NuuNB+0a9LeAvbMXIUmSamGDVYP3Ud01KEmSBkPKM7BgcBqsVwJfyF6EJEmqVdoZrEEYct8B+CPVXSiSJGkwpN1BCN0/g7UGcBo2V5IkDZr7SWquoNsN1krAL4HnZi9EkiTV7sbMN+9qgzWK6uthdk1ehyRJymGDVcDHgUOzFyFJktLclPnmXWywXg98OnsRkiQplQ1WoN2A7zAYd0dKkqRlS71E2KVGZH3gUqpvTZckSYNrHrAyMCtrAV05gzUROAObK0mSVH3Jc1pzBd1osMYAJwM7Zi9EkiQ1Qur8FXSjwfos8I/Zi5AkSY2ROn8F7W+wjgY+lL0ISZLUKJ7BGoF9gW9kL0KSJDWODdYwbQqcAozLXogkSWqc9AarjY9pmARcBGyZvRBJktQ4c6i+j3hu5iLadgZrLNUdgzZXkiRpaW4jubmC9jVYXwFenL0ISZLUWOmXB6FdDdY7gWOyFyFJkhrNBqsPLwe+lr0ISZLUeDZYPdoW+DHVE9slSZKWJ/0ho9D8BmtNqu8YXDV7IZIkqRUacQaryY9pGA+cB+yVvRBJktQKTwMTgfnZC2nyGazjsbmSJEm9u5UGNFfQ3AbrA8BR2YuQJEmt0oj5K2hmg/VK4NjsRUiSpNZpxPwVNK/B2gH4Ic1blyRJaj4brKVYFzibajhNkiSpX14iXMJ44KfAc7IXIkmSWuvW7AUs0oQGaxTVZUHvGJQkScM1E7gnexGLNKHB+iRwSPYiJElSq90OLMhexCLZDdbhwL8mr0GSJLXfbdkLWFxmg7UbcCLNfpq8JElqBxssYAPgdGBC0vtLkqRuGfgGa1WqxzGsnfDekiSpmwa6wRpD9TiGbWp+X0mS1G0D3WAdC7ys5veUJEnd15hnYEG9A+ZvBb5V4/tJkqTB8BgwOXsRi6vrDNZ+wH/U9F6SJGmwNOryINTTYG0GnAKMq+G9JEnS4GnU5UEo32BNBs4EphR+H0mSNLgG6gzWGOC/gC0KvockSdKd2QtYUskG63jg5QVfX5IkCeCO7AUsqVSD9S7gzYVeW5IkaXGNO4NV4jENBwI/o7pEKEmSVNrqwCPZi1hcdIO1HXAhsErw60qSJC3Nk1Rfw9cokZcIpwJnYHMlSZLqc1f2ApYmqsEaD5wGbBT0epIkSb1o3PwVxDVY3wb2DHotSZKkXnW2wfowcGTA60iSJPWrk5cIDwM+F7EQSZKkYejcGaznAd+jzKMeJEmSetGpBms9qmddrRi4FkmSpH41ssEaztmnlYHfAzsHr0WSJKkf86lO9szOXsiS+j2DNQr4FjZXkiQp3zQa2FxB/w3Wp4E3lFiIJElSn+7JXsCy9NNgvQH4eKmFSJIk9an1DdbuwAl4x6AkSWqOe7MXsCy9NFibUH3H4ITCa5EkSerHfdkLWJahGqzVqJqrNWpYiyRJUj9aeYlwDPBTYOua1iJJktSPVl4ifDvw0roWIkmS1KdWNlib1rYKSZKk/rXyEuFKta1CkiSpP7OAh7IXsSzLa7D8nkFJktRU9wMLshexLJ7BkiRJbdTY+SuwwZIkSe1kgyVJkhTs/uwFLI8NliRJaqMHsxewPDZYkiSpjWywJEmSgrW2wfIxDZIkqakeyF7A8ngGS5IktVFrz2DZYEmSpKZqdIM1ahn//XhgZp0LkSRJ6tFMGj7KtKwzWJ69kiRJTTUtewFDscGSJElt0+jLg2CDJUmS2qe1DVajr2tKkqSB1toGyzNYkiSpqRrfYI1dxn9vgyVJ3fIEMK/Pv/MYsKCPf3/Bwr/Tj3lUa+vHHOCpPv/OLGBGn3/nafq/o346MLvPv/MkMLfPv/M4ML/Pv/Non//+/IXv04+5VNvTj+H8bBr/pAMbLLXRTKoPvlL/vn+n2X+nqeuq8+9IarhlNVjzgFv7fK3hfEjMoOpc+/EU1W8v/fA3N39zkyRJkiRJkiRJkiRJkiRJkiRJkiRJkiRphP5/sBakFR5apU8AAAAASUVORK5CYII=;" vertex="1" parent="1">
          <mxGeometry x="525" y="165" width="56" height="70" as="geometry" />
        </mxCell>
        <mxCell id="Zxz7v_TV_L8BSBhZAzVD-60" value="" style="group;fontSize=12;" vertex="1" connectable="0" parent="1">
          <mxGeometry x="450" y="175" width="35" height="53" as="geometry" />
        </mxCell>
        <mxCell id="Zxz7v_TV_L8BSBhZAzVD-57" value="1" style="text;html=1;align=center;verticalAlign=middle;resizable=0;points=[];autosize=1;strokeColor=none;fillColor=none;fontStyle=1;fontSize=20;" vertex="1" parent="Zxz7v_TV_L8BSBhZAzVD-60">
          <mxGeometry x="2.5" y="-12" width="30" height="40" as="geometry" />
        </mxCell>
        <mxCell id="Zxz7v_TV_L8BSBhZAzVD-58" value="n" style="text;html=1;align=center;verticalAlign=middle;resizable=0;points=[];autosize=1;strokeColor=none;fillColor=none;fontStyle=1;fontSize=20;" vertex="1" parent="Zxz7v_TV_L8BSBhZAzVD-60">
          <mxGeometry x="2.5" y="18" width="30" height="40" as="geometry" />
        </mxCell>
        <mxCell id="Zxz7v_TV_L8BSBhZAzVD-59" value="" style="endArrow=none;html=1;rounded=0;strokeWidth=2;" edge="1" parent="Zxz7v_TV_L8BSBhZAzVD-60">
          <mxGeometry width="50" height="50" relative="1" as="geometry">
            <mxPoint y="25" as="sourcePoint" />
            <mxPoint x="35" y="25" as="targetPoint" />
          </mxGeometry>
        </mxCell>
        <mxCell id="Zxz7v_TV_L8BSBhZAzVD-61" value="*" style="text;html=1;align=center;verticalAlign=middle;resizable=0;points=[];autosize=1;strokeColor=none;fillColor=none;fontStyle=0;fontSize=50;" vertex="1" parent="1">
          <mxGeometry x="485" y="175" width="40" height="70" as="geometry" />
        </mxCell>
        <mxCell id="Zxz7v_TV_L8BSBhZAzVD-62" value="" style="sketch=0;outlineConnect=0;fontColor=#232F3E;gradientColor=none;fillColor=#00994D;strokeColor=none;dashed=0;verticalLabelPosition=bottom;verticalAlign=top;align=center;html=1;fontSize=12;fontStyle=0;aspect=fixed;shape=mxgraph.aws4.workspaces_family_amazon_workspaces_core;" vertex="1" parent="1">
          <mxGeometry x="254" y="161" width="77" height="78" as="geometry" />
        </mxCell>
      </root>
    </mxGraphModel>
  </diagram>
</mxfile>
